<svg width="34" height="34" viewBox="0 0 34 34" fill="none" xmlns="http://www.w3.org/2000/svg">
<g filter="url(#filter0_d_237_24)">
<path d="M6.99992 20.3334C6.08325 20.3334 5.33325 21.0834 5.33325 22V27C5.33325 27.9167 6.08325 28.6667 6.99992 28.6667H11.9999C12.9166 28.6667 13.6666 27.9167 13.6666 27C13.6666 26.0834 12.9166 25.3334 11.9999 25.3334H8.66659V22C8.66659 21.0834 7.91659 20.3334 6.99992 20.3334ZM6.99992 13.6667C7.91659 13.6667 8.66659 12.9167 8.66659 12V8.66671H11.9999C12.9166 8.66671 13.6666 7.91671 13.6666 7.00004C13.6666 6.08337 12.9166 5.33337 11.9999 5.33337H6.99992C6.08325 5.33337 5.33325 6.08337 5.33325 7.00004V12C5.33325 12.9167 6.08325 13.6667 6.99992 13.6667ZM25.3333 25.3334H21.9999C21.0833 25.3334 20.3333 26.0834 20.3333 27C20.3333 27.9167 21.0833 28.6667 21.9999 28.6667H26.9999C27.9166 28.6667 28.6666 27.9167 28.6666 27V22C28.6666 21.0834 27.9166 20.3334 26.9999 20.3334C26.0833 20.3334 25.3333 21.0834 25.3333 22V25.3334ZM20.3333 7.00004C20.3333 7.91671 21.0833 8.66671 21.9999 8.66671H25.3333V12C25.3333 12.9167 26.0833 13.6667 26.9999 13.6667C27.9166 13.6667 28.6666 12.9167 28.6666 12V7.00004C28.6666 6.08337 27.9166 5.33337 26.9999 5.33337H21.9999C21.0833 5.33337 20.3333 6.08337 20.3333 7.00004Z" fill="white"/>
</g>
<defs>
<filter id="filter0_d_237_24" x="0.333252" y="0.333374" width="33.3333" height="33.3334" filterUnits="userSpaceOnUse" color-interpolation-filters="sRGB">
<feFlood flood-opacity="0" result="BackgroundImageFix"/>
<feColorMatrix in="SourceAlpha" type="matrix" values="0 0 0 0 0 0 0 0 0 0 0 0 0 0 0 0 0 0 127 0" result="hardAlpha"/>
<feOffset/>
<feGaussianBlur stdDeviation="2.5"/>
<feComposite in2="hardAlpha" operator="out"/>
<feColorMatrix type="matrix" values="0 0 0 0 0 0 0 0 0 0 0 0 0 0 0 0 0 0 1 0"/>
<feBlend mode="normal" in2="BackgroundImageFix" result="effect1_dropShadow_237_24"/>
<feBlend mode="normal" in="SourceGraphic" in2="effect1_dropShadow_237_24" result="shape"/>
</filter>
</defs>
</svg>
