<svg width="54" height="66" viewBox="0 0 54 66" fill="none" xmlns="http://www.w3.org/2000/svg">
<g filter="url(#filter0_d_231_7)">
<path d="M5 58C5 59.6569 6.34315 61 8 61H16.6667C18.3235 61 19.6667 59.6569 19.6667 58V8C19.6667 6.34314 18.3235 5 16.6667 5H8C6.34315 5 5 6.34315 5 8V58ZM37.3333 5C35.6765 5 34.3333 6.34315 34.3333 8V58C34.3333 59.6569 35.6765 61 37.3333 61H46C47.6569 61 49 59.6569 49 58V8C49 6.34314 47.6569 5 46 5H37.3333Z" fill="white"/>
</g>
<defs>
<filter id="filter0_d_231_7" x="0" y="0" width="54" height="66" filterUnits="userSpaceOnUse" color-interpolation-filters="sRGB">
<feFlood flood-opacity="0" result="BackgroundImageFix"/>
<feColorMatrix in="SourceAlpha" type="matrix" values="0 0 0 0 0 0 0 0 0 0 0 0 0 0 0 0 0 0 127 0" result="hardAlpha"/>
<feOffset/>
<feGaussianBlur stdDeviation="2.5"/>
<feComposite in2="hardAlpha" operator="out"/>
<feColorMatrix type="matrix" values="0 0 0 0 0 0 0 0 0 0 0 0 0 0 0 0 0 0 1 0"/>
<feBlend mode="normal" in2="BackgroundImageFix" result="effect1_dropShadow_231_7"/>
<feBlend mode="normal" in="SourceGraphic" in2="effect1_dropShadow_231_7" result="shape"/>
</filter>
</defs>
</svg>
