<svg width="42" height="42" viewBox="0 0 42 42" fill="none" xmlns="http://www.w3.org/2000/svg">
<g filter="url(#filter0_d_237_21)">
<path d="M33.2251 22.568C33.2909 22.056 33.3403 21.544 33.3403 21C33.3403 20.456 33.2909 19.944 33.2251 19.432L36.6958 16.792C37.0084 16.552 37.0906 16.12 36.8932 15.768L33.6035 10.232C33.4061 9.88 32.9619 9.752 32.6001 9.88L28.5043 11.48C27.649 10.84 26.7278 10.312 25.7245 9.912L25.0994 5.672C25.05 5.288 24.7046 5 24.2934 5H17.7139C17.3026 5 16.9572 5.288 16.9079 5.672L16.2828 9.912C15.2794 10.312 14.3583 10.856 13.503 11.48L9.40719 9.88C9.02887 9.736 8.6012 9.88 8.40381 10.232L5.11404 15.768C4.90021 16.12 4.9989 16.552 5.31143 16.792L8.78214 19.432C8.71634 19.944 8.66699 20.472 8.66699 21C8.66699 21.528 8.71634 22.056 8.78214 22.568L5.31143 25.208C4.9989 25.448 4.91666 25.88 5.11404 26.232L8.40381 31.768C8.6012 32.12 9.04532 32.248 9.40719 32.12L13.503 30.52C14.3583 31.16 15.2794 31.688 16.2828 32.088L16.9079 36.328C16.9572 36.712 17.3026 37 17.7139 37H24.2934C24.7046 37 25.05 36.712 25.0994 36.328L25.7245 32.088C26.7278 31.688 27.649 31.144 28.5043 30.52L32.6001 32.12C32.9784 32.264 33.4061 32.12 33.6035 31.768L36.8932 26.232C37.0906 25.88 37.0084 25.448 36.6958 25.208L33.2251 22.568V22.568ZM21.0036 26.6C17.829 26.6 15.2465 24.088 15.2465 21C15.2465 17.912 17.829 15.4 21.0036 15.4C24.1783 15.4 26.7607 17.912 26.7607 21C26.7607 24.088 24.1783 26.6 21.0036 26.6Z" fill="white"/>
</g>
<defs>
<filter id="filter0_d_237_21" x="0" y="0" width="42" height="42" filterUnits="userSpaceOnUse" color-interpolation-filters="sRGB">
<feFlood flood-opacity="0" result="BackgroundImageFix"/>
<feColorMatrix in="SourceAlpha" type="matrix" values="0 0 0 0 0 0 0 0 0 0 0 0 0 0 0 0 0 0 127 0" result="hardAlpha"/>
<feOffset/>
<feGaussianBlur stdDeviation="2.5"/>
<feComposite in2="hardAlpha" operator="out"/>
<feColorMatrix type="matrix" values="0 0 0 0 0 0 0 0 0 0 0 0 0 0 0 0 0 0 1 0"/>
<feBlend mode="normal" in2="BackgroundImageFix" result="effect1_dropShadow_237_21"/>
<feBlend mode="normal" in="SourceGraphic" in2="effect1_dropShadow_237_21" result="shape"/>
</filter>
</defs>
</svg>
