<svg width="66" height="55" viewBox="0 0 66 55" fill="none" xmlns="http://www.w3.org/2000/svg">
<g filter="url(#filter0_d_231_13)">
<path d="M6.96 6.09326C5.74667 7.08431 5.74667 8.68523 6.96 9.67628L18.3467 18.9769L17.4444 19.7392H8.11111C6.4 19.7392 5 20.8827 5 22.2804V32.445C5 33.8426 6.4 34.9861 8.11111 34.9861H17.4444L27.68 43.3465C29.64 44.9474 33 43.8039 33 41.5423V30.9457L46.0044 41.5677C44.48 42.5079 42.8311 43.2957 41.0267 43.8801C39.9067 44.2613 39.2222 45.227 39.2222 46.218C39.2222 48.0476 41.4933 49.2166 43.5467 48.5305C46.0356 47.6919 48.3689 46.5738 50.4533 45.2015L54.6222 48.6067C55.8356 49.5977 57.7956 49.5977 59.0089 48.6067C60.2222 47.6156 60.2222 46.0147 59.0089 45.0237L11.3778 6.09326C10.1644 5.10221 8.20444 5.10221 6.96 6.09326ZM54.7778 27.3627C54.7778 29.4464 54.3111 31.4539 53.5022 33.309L58.2622 37.1969C60.0044 34.2238 61 30.8949 61 27.3627C61 17.6301 53.5333 9.29511 43.0178 6.01703C41.1822 5.43256 39.2222 6.60149 39.2222 8.20242V8.68523C39.2222 9.65087 40 10.4894 41.12 10.8452C49.1156 13.488 54.7778 19.8917 54.7778 27.3627ZM27.68 11.3789L27.1511 11.8108L33 16.5882V13.1577C33 10.896 29.64 9.77793 27.68 11.3789ZM47 27.3627C47 22.8648 43.8267 19.0023 39.2222 17.1218V21.6705L46.9378 27.9726C46.9689 27.7693 47 27.566 47 27.3627Z" fill="white"/>
</g>
<defs>
<filter id="filter0_d_231_13" x="0" y="0.349976" width="66" height="54" filterUnits="userSpaceOnUse" color-interpolation-filters="sRGB">
<feFlood flood-opacity="0" result="BackgroundImageFix"/>
<feColorMatrix in="SourceAlpha" type="matrix" values="0 0 0 0 0 0 0 0 0 0 0 0 0 0 0 0 0 0 127 0" result="hardAlpha"/>
<feOffset/>
<feGaussianBlur stdDeviation="2.5"/>
<feComposite in2="hardAlpha" operator="out"/>
<feColorMatrix type="matrix" values="0 0 0 0 0 0 0 0 0 0 0 0 0 0 0 0 0 0 1 0"/>
<feBlend mode="normal" in2="BackgroundImageFix" result="effect1_dropShadow_231_13"/>
<feBlend mode="normal" in="SourceGraphic" in2="effect1_dropShadow_231_13" result="shape"/>
</filter>
</defs>
</svg>
